<svg width="2280" height="1510" viewBox="0 0 2280 1510" fill="none" xmlns="http://www.w3.org/2000/svg">
<path fill-rule="evenodd" clip-rule="evenodd" d="M0 1139.72C0 510.269 510.256 0 1139.71 0C1769.15 0 2279.41 510.256 2279.41 1139.72C2279.41 1147.16 2279.33 1154.57 2279.2 1161.99H0.220489C0.0755393 1154.57 0.00203797 1147.14 0 1139.72Z" fill="#CC2229"/>
<path fill-rule="evenodd" clip-rule="evenodd" d="M1210.39 932.708C1336.69 931.035 1298.31 1108.01 1172.54 1161.43L1210.39 932.708ZM438.741 954.263C423.605 954.562 409.676 952.085 399.871 943.875C394.566 907.092 399.832 888.727 426.848 870.92C430.803 884.681 438.3 895.238 449.324 902.553C439.039 896.704 431.543 886.159 426.848 870.92C451.84 804.826 515.431 751.196 561.85 768.121C618.904 770.378 607.62 811.142 645.933 816.68C662.807 817.056 675.232 811.142 683.182 798.963L696.748 824.734C679.719 842.866 666.944 855.641 647.217 852.555C614.377 852.399 611.07 822.361 581.019 823.554C523.706 822.361 539.244 990.566 443.527 1000.03C401.79 1004.5 380.649 970.553 399.871 943.875C411.478 951.631 424.435 955.107 438.741 954.263Z" fill="white"/>
<path d="M399.871 943.875C409.676 952.085 423.605 954.562 438.741 954.263C424.435 955.107 411.478 951.631 399.871 943.875ZM399.871 943.875C394.566 907.092 399.832 888.727 426.848 870.92M399.871 943.875C380.649 970.553 401.79 1004.5 443.527 1000.03C539.244 990.566 523.706 822.361 581.019 823.554C611.07 822.361 614.377 852.399 647.217 852.555C666.944 855.641 679.719 842.866 696.748 824.734L683.182 798.963C675.232 811.142 662.807 817.056 645.933 816.68C607.62 811.142 618.904 770.378 561.85 768.121C515.431 751.196 451.84 804.826 426.848 870.92M426.848 870.92C430.803 884.681 438.3 895.238 449.324 902.553C439.039 896.704 431.543 886.159 426.848 870.92ZM1210.39 932.708C1336.69 931.035 1298.31 1108.01 1172.54 1161.43L1210.39 932.708Z" stroke="black" stroke-width="11.3615" stroke-miterlimit="2.613" stroke-linecap="round" stroke-linejoin="round"/>
<path fill-rule="evenodd" clip-rule="evenodd" d="M307.487 1366.77C225.311 1454.31 108.025 1410.7 108.025 1410.7L107.908 1366.77H307.487ZM833.048 1366.77C841.452 1404.46 838.793 1449.5 787.329 1509.23L738.018 1458.14C765.683 1409.9 767.46 1386.27 760.638 1366.79L833.048 1366.77Z" fill="black"/>
<path fill-rule="evenodd" clip-rule="evenodd" d="M191.265 1224.29L194.689 1339.73C194.689 1339.73 275.711 1325.59 297.449 1224.32L373.322 1224.29C359.522 1291.7 335.554 1336.9 307.5 1366.78L107.909 1366.75L107.52 1224.29H191.265ZM636.024 1224.29C623.601 1238.65 608.232 1250.16 590.964 1258.04C573.696 1265.93 554.933 1270 535.95 1269.99C516.962 1270 498.193 1265.93 480.922 1258.04C463.65 1250.15 448.282 1238.63 435.862 1224.27L636.024 1224.29ZM863.359 1224.29C852.944 1230.7 841.567 1235.38 829.663 1238.17C791.182 1279.53 821.881 1316.68 833.048 1366.75H760.638C749.821 1335.95 717.397 1315.59 732.13 1224.32L863.359 1224.29ZM1308.12 1224.29C1349.13 1302.22 1423.89 1328.51 1423.89 1328.51L1455.86 1264.64C1433.71 1255.93 1413.94 1242.1 1398.15 1224.29H1308.12ZM1594.62 1224.29C1584.26 1236.5 1572.25 1244.97 1559.64 1246.67C1557.11 1240.29 1555.68 1232.69 1555.26 1224.32L1492.11 1224.29C1489.5 1260.36 1496.11 1294.91 1518.05 1320.98C1591.69 1360.72 1677.99 1230.01 1677.99 1230.01C1694.38 1238.73 1713.15 1253.9 1732.55 1287.98L1776.12 1230.52C1775 1228.42 1773.84 1226.34 1772.67 1224.27L1594.62 1224.29ZM1797.32 1224.29C1797.59 1246.42 1797.04 1268.55 1795.68 1290.63L1856.6 1292.76L1860.8 1224.29H1797.32ZM2093.2 1224.29C2112.02 1246.94 2140.19 1261.82 2177.74 1268.83L2161.27 1340.14C2083.37 1331.53 2028.2 1284.19 1998.77 1224.29H2093.2ZM454.59 1298.75H638.528V1335.99H454.59V1298.75Z" fill="black"/>
<path fill-rule="evenodd" clip-rule="evenodd" d="M107.506 1224.29L107.039 1056.7H186.271L191.252 1224.29H107.506ZM297.448 1224.29C301.365 1206.11 303.349 1185.06 302.597 1160.74C297.707 1001.46 106.066 1047.84 106.066 1047.84L87.4805 983.757C87.4805 983.757 361.298 852.036 382.815 1157.58C380.913 1179.97 377.743 1202.24 373.321 1224.28L297.448 1224.29ZM435.861 1224.29C414.839 1200.09 403.289 1169.1 403.346 1137.05C403.346 1063.64 462.709 1004.11 535.949 1004.11C609.189 1004.11 668.552 1063.64 668.552 1137.05C668.552 1170.43 656.282 1200.94 636.024 1224.27L435.861 1224.29ZM732.13 1224.29L733.206 1217.99C707.954 1198.69 691.82 1169.12 691.82 1136C691.82 1081.67 735.242 1036.95 790.986 1031.33C800.325 1002.84 823.852 979.58 861.568 961.565L909.997 1011.59C893.058 1018.93 878.169 1031.39 865.303 1048.96C894.628 1067.9 913.875 1099.82 913.875 1136C913.875 1172.99 893.772 1205.5 863.345 1224.28L732.13 1224.29ZM1398.15 1224.29C1333.01 1151.26 1342.07 1024.83 1458.49 1019.36L1454.61 942.837C1454.61 942.837 1277.79 943.901 1282.05 1119.5C1283.09 1161.83 1293.42 1196.36 1308.12 1224.27L1398.15 1224.29ZM1492.11 1224.29C1498.06 1141.18 1552.78 1049.92 1580.46 1035.07C1579.66 1011.46 1550.05 997.012 1506.94 998.685L1510.82 938.038C1620.91 914.783 1686.74 985.352 1708.34 1149.73C1730.5 1162.67 1751.93 1187.52 1772.68 1224.25L1594.62 1224.28C1626.72 1186.59 1643.28 1113.25 1614.84 1094.56C1580.44 1109.86 1552.96 1178.46 1555.26 1224.31L1492.11 1224.29ZM1860.81 1224.29L1867.83 1109.42C1890.9 1045.69 1915.4 1022.3 1988.06 1014.62L1986.11 949.828C1925.52 944.562 1875.47 965.807 1836 1013.59L1809.93 949.828L1749.87 998.672C1780.24 1050.88 1796.17 1132.65 1797.34 1224.32L1860.81 1224.29ZM1998.76 1224.29C1944.43 1113.78 1977.73 960.567 2117.77 929.504L2140.04 997.621C2086.74 1010.75 2058.65 1041.6 2055.78 1090.13L2169.01 1068.83L2181.6 1136.94L2066.42 1158.23C2069.84 1184.85 2078.75 1206.86 2093.19 1224.27L1998.76 1224.29ZM761.208 1136C761.208 1116.01 779.858 1099.82 802.854 1099.82C825.849 1099.82 844.5 1116.01 844.5 1136C844.5 1155.98 825.849 1172.19 802.854 1172.19C779.858 1172.19 761.208 1155.98 761.208 1136ZM481.8 1137.06C481.8 1108.86 506.041 1085.98 535.949 1085.98C565.857 1085.98 590.098 1108.86 590.098 1137.06C590.098 1165.28 565.857 1188.15 535.949 1188.15C506.041 1188.15 481.8 1165.28 481.8 1137.06ZM1222.7 667.035C1226.39 660.628 1231.57 656.737 1237.24 659.966C1242.93 663.209 1242.07 669.694 1238.38 676.101C1234.68 682.508 1228.65 687.631 1223.1 684.531C1217.35 681.328 1218.98 673.442 1222.7 667.035ZM1251.79 705.905C1255.49 699.498 1262.18 694.323 1267.85 697.553C1273.54 700.795 1271.19 708.564 1267.5 714.958C1263.8 721.365 1256.68 726.929 1251.13 723.83C1245.37 720.639 1248.08 712.312 1251.79 705.905ZM1289.58 668.734C1294.02 662.82 1301.26 658.501 1306.51 662.405C1311.77 666.322 1308.51 673.727 1304.06 679.642C1299.6 685.556 1291.85 690.199 1286.73 686.438C1281.4 682.573 1285.12 674.648 1289.58 668.734ZM1460.24 474.149L1692.23 551.915C1743.45 506.91 1729.87 412.944 1685.37 390.688C1596.32 347.265 1514.78 377.835 1460.24 474.149Z" fill="black"/>
<path fill-rule="evenodd" clip-rule="evenodd" d="M1558.88 443.747C1556.64 434.085 1574.71 421.673 1599.22 416.005C1623.72 410.35 1645.41 413.593 1647.63 423.255C1649.86 432.918 1631.79 445.343 1607.28 450.998C1582.79 456.665 1561.11 453.41 1558.88 443.747Z" fill="white"/>
<path fill-rule="evenodd" clip-rule="evenodd" d="M1116.33 497.52C1116.36 475.939 1096.63 469.402 1065.13 487.508C1008.66 530.58 955.431 552.603 911.243 528.064C850.402 487.287 859.908 388.107 909.31 371.752C955.314 362.622 959.399 424.059 988.335 425.175C1029.51 428.521 1065.41 412.011 1097.41 421.842C1097.27 355.009 993.367 384.618 993.562 311.469C994.197 259.499 1116.14 241.251 1149.24 307.059C1171.03 364.45 1169.12 440.726 1167.53 469.7L1116.33 497.52Z" fill="black"/>
<path fill-rule="evenodd" clip-rule="evenodd" d="M904.939 897.041C816.784 911.736 686.736 849.014 651.121 753.466L713.078 735.891L899.298 861.257L904.939 897.041ZM979.113 870.012C1012.9 897.171 1037.26 932.124 1057.57 967.843L1095.85 933.11C1061.78 909.583 1033.83 876.069 1012.03 832.594L979.113 870.012Z" fill="white" stroke="black" stroke-width="11.3615" stroke-miterlimit="2.613" stroke-linecap="round" stroke-linejoin="round"/>
<path fill-rule="evenodd" clip-rule="evenodd" d="M1118.57 607.698C1118.57 607.698 1160.85 543.148 1192.04 562.071C1223.19 580.98 1249.57 614.909 1297.77 606.583C1387.92 591.006 1388.58 522.435 1406.82 499.738C1448.01 448.533 1502.55 471.905 1502.55 471.905L1690.64 548.699C1752.98 686.71 1710.67 755.722 1551.51 725.671C1485.44 857.055 1398.98 909.401 1305.54 895.964C1242.41 916.962 1196.41 906.197 1167.53 863.695C1150.78 840.142 1143.04 783.542 1137.47 744.594C1128.56 717.876 1090.93 714.115 1050.66 733.466L1049.55 783.555C1028.78 838.975 991.682 874.979 938.246 891.516C950.97 935.717 974.393 992.265 1019.49 1023.98C1043.12 942.487 1101.3 900.996 1191.46 909.323C1257.11 936.028 1256.01 1061.24 1207.59 1129.15C1162.49 1183.13 1112.43 1202.05 1064 1189.24C1001.05 1171.99 968.79 1115.3 953.81 1020.63C945.341 971.332 911.503 904.81 861.426 853.67C778.666 834.085 715.724 802.141 694.596 753.452C622.251 747.331 612.666 782.998 549.231 789.119C515.834 791.908 496.25 768.394 491.918 745.152C420.779 788.276 350.016 810.818 272.664 793.568C209.774 769.081 205.883 705.646 249.292 680.044C250.758 710.043 261.16 730.444 280.459 741.248C261.16 731.235 250.771 710.834 249.292 680.044C259.928 634.507 289.239 615.96 337.215 624.39C316.022 669.564 320.847 699.615 351.689 714.543C320.263 700.03 315.438 669.979 337.215 624.39C359.522 606.103 385.488 604.248 415.124 618.826C485.238 610.474 516.962 580.423 554.251 576.532C602.355 571.396 622.394 589.579 614.352 631.07C608.101 649.344 594.742 669.382 574.289 691.172C568.167 702.857 567.7 719.549 575.962 731.235C598.776 737.915 624.339 733.479 642.186 723.44C621.123 668.682 633.107 617.322 681.134 597.686C638.684 562.966 638.048 489.609 668.67 464.006C668.112 475.692 686.711 570.41 741.236 595.455C817.913 598.165 889.441 623.56 929.258 662.405C929.258 662.405 958.116 655.634 984.069 657.891C1005.33 659.746 1026.18 661.134 1026.18 661.134L1037.31 711.223C1054.18 698.928 1077.55 687.423 1107.44 676.723C1119.71 668.747 1121.18 658.358 1111.89 645.557C1080.23 610.318 1076.14 581.006 1099.64 557.635L1139.71 579.904L1118.57 607.698Z" fill="white"/>
<path fill-rule="evenodd" clip-rule="evenodd" d="M1201.67 1032.46C1204.46 1000.41 1221.18 975.716 1238.99 977.259L1239.17 977.285C1246.34 1013.11 1241.7 1056.32 1227 1093.05C1210.21 1089.86 1198.96 1063.39 1201.67 1032.46ZM1127.06 1137.84C1150.2 1115.49 1179.03 1107.83 1191.44 1120.67C1196.23 1125.63 1197.87 1132.95 1196.76 1141.34C1166.72 1173.08 1134.79 1189.87 1102.79 1192.66C1099.08 1178.07 1108.33 1155.93 1127.06 1137.84Z" fill="black"/>
<path d="M491.918 745.152C496.25 768.394 515.834 791.908 549.231 789.119C612.666 782.998 622.251 747.331 694.596 753.452C715.724 802.141 778.666 834.085 861.426 853.67C911.503 904.81 945.341 971.332 953.81 1020.63C968.79 1115.3 1001.05 1171.99 1064 1189.24C1112.43 1202.05 1162.49 1183.13 1207.59 1129.15C1256.01 1061.24 1257.11 936.028 1191.46 909.323C1101.3 900.996 1043.12 942.487 1019.49 1023.98C974.393 992.265 950.97 935.717 938.246 891.516C991.682 874.979 1028.78 838.975 1049.55 783.555L1050.66 733.466C1090.93 714.115 1128.56 717.876 1137.47 744.594C1143.04 783.542 1150.78 840.142 1167.53 863.695C1196.41 906.197 1242.41 916.962 1305.54 895.964C1398.98 909.401 1485.44 857.055 1551.51 725.671C1710.67 755.722 1752.98 686.71 1690.64 548.699L1502.55 471.905C1502.55 471.905 1448.01 448.533 1406.82 499.738C1388.58 522.435 1387.92 591.006 1297.77 606.583C1249.57 614.909 1223.19 580.98 1192.04 562.071C1160.85 543.148 1118.57 607.698 1118.57 607.698L1139.71 579.904L1099.64 557.635C1076.14 581.006 1080.23 610.318 1111.89 645.557C1121.18 658.358 1119.71 668.747 1107.44 676.723C1077.55 687.423 1054.18 698.928 1037.31 711.223L1026.18 661.134C1026.18 661.134 1005.33 659.746 984.069 657.891C958.116 655.634 929.258 662.405 929.258 662.405C889.441 623.56 817.913 598.165 741.236 595.455C686.711 570.41 668.112 475.692 668.67 464.006C638.048 489.609 638.684 562.966 681.134 597.686C633.107 617.322 621.123 668.682 642.186 723.44C624.339 733.479 598.776 737.915 575.962 731.235C567.7 719.549 568.167 702.857 574.289 691.172C594.742 669.382 608.101 649.344 614.352 631.07C622.394 589.579 602.355 571.396 554.251 576.532C516.962 580.423 485.238 610.474 415.124 618.826C385.488 604.248 359.522 606.103 337.215 624.39M491.918 745.152L515.289 721.223M491.918 745.152C420.779 788.276 350.016 810.818 272.664 793.568C209.774 769.081 205.883 705.646 249.292 680.044M249.292 680.044C250.758 710.043 261.16 730.444 280.459 741.248C261.16 731.235 250.771 710.834 249.292 680.044ZM249.292 680.044C259.928 634.507 289.239 615.96 337.215 624.39M337.215 624.39C316.022 669.564 320.847 699.615 351.689 714.543C320.263 700.03 315.438 669.979 337.215 624.39Z" stroke="black" stroke-width="11.3615" stroke-miterlimit="2.613" stroke-linecap="round" stroke-linejoin="round"/>
<path fill-rule="evenodd" clip-rule="evenodd" d="M1190.25 537.921C1190.7 522.614 1197.1 508.086 1208.09 497.419C1219.08 486.752 1233.79 480.786 1249.1 480.786C1264.42 480.786 1279.13 486.752 1290.12 497.419C1301.11 508.086 1307.51 522.614 1307.96 537.921C1307.96 553.531 1301.76 568.501 1290.72 579.539C1279.69 590.577 1264.71 596.778 1249.1 596.778C1233.5 596.778 1218.52 590.577 1207.49 579.539C1196.45 568.501 1190.25 553.531 1190.25 537.921Z" fill="white" stroke="black" stroke-width="11.3615" stroke-miterlimit="2.613" stroke-linecap="round" stroke-linejoin="round"/>
<path fill-rule="evenodd" clip-rule="evenodd" d="M1100.72 531.877C1100.72 515.705 1107.14 500.195 1118.58 488.76C1130.01 477.324 1145.52 470.9 1161.7 470.9C1177.87 470.9 1193.38 477.324 1204.81 488.76C1216.25 500.195 1222.67 515.705 1222.67 531.877C1222.67 548.049 1216.25 563.559 1204.81 574.995C1193.38 586.43 1177.87 592.854 1161.7 592.854C1145.52 592.854 1130.01 586.43 1118.58 574.995C1107.14 563.559 1100.72 548.049 1100.72 531.877Z" fill="white" stroke="black" stroke-width="11.3615" stroke-miterlimit="2.613" stroke-linecap="round" stroke-linejoin="round"/>
<path fill-rule="evenodd" clip-rule="evenodd" d="M1151.9 525.146C1151.9 523.913 1152.14 522.692 1152.61 521.552C1153.08 520.413 1153.77 519.378 1154.65 518.506C1155.52 517.634 1156.55 516.942 1157.69 516.47C1158.83 515.999 1160.05 515.756 1161.29 515.756C1162.52 515.756 1163.74 515.999 1164.88 516.47C1166.02 516.942 1167.05 517.634 1167.93 518.506C1168.8 519.378 1169.49 520.413 1169.96 521.552C1170.43 522.692 1170.68 523.913 1170.68 525.146C1170.68 527.636 1169.69 530.025 1167.93 531.786C1166.17 533.547 1163.78 534.536 1161.29 534.536C1158.8 534.536 1156.41 533.547 1154.65 531.786C1152.89 530.025 1151.9 527.636 1151.9 525.146ZM1243.48 527.662C1243.61 525.132 1244.7 522.748 1246.54 521.003C1248.38 519.258 1250.81 518.285 1253.35 518.285C1255.88 518.285 1258.32 519.258 1260.15 521.003C1261.99 522.748 1263.09 525.132 1263.22 527.662C1263.22 530.28 1262.18 532.79 1260.33 534.641C1258.47 536.492 1255.96 537.532 1253.35 537.532C1250.73 537.532 1248.22 536.492 1246.37 534.641C1244.52 532.79 1243.48 530.28 1243.48 527.662Z" fill="black"/>
<path d="M1143.04 672.262C1152.78 660.9 1165.35 656.711 1183.1 656.685C1168.38 781.013 1209.2 860.777 1305.52 895.99" stroke="black" stroke-width="11.3615" stroke-miterlimit="2.613" stroke-linecap="round" stroke-linejoin="round"/>
<path fill-rule="evenodd" clip-rule="evenodd" d="M1095.87 721.793C1102.46 744.335 1095.56 756.76 1075.15 759.068C1046.91 754.555 1036.05 706.372 1057.35 682.274C1065.45 675.971 1076.8 679.901 1077.94 689.615C1083.65 683.325 1119.28 678.773 1117.44 662.249C1121.51 647.412 1099.86 634.585 1090.72 616.609C1015.38 607.413 980.786 668.488 1001.56 753.984C1019.27 817.212 1064.8 843.489 1105.06 837.458C1119.25 833.204 1145.16 814.942 1146.31 795.877C1137.02 767.304 1150.88 718.953 1095.87 721.793Z" fill="black"/>
<path d="M1157.45 947.778C1087.83 968.141 1039.36 1072.56 1064.01 1189.24" stroke="black" stroke-width="11.3615" stroke-miterlimit="2.613" stroke-linecap="round" stroke-linejoin="round"/>
<path fill-rule="evenodd" clip-rule="evenodd" d="M1116.7 1021.29C1124.57 991.928 1144.15 971.669 1160.44 976.027C1176.76 980.411 1183.57 1007.74 1175.72 1037.1C1167.85 1066.47 1148.27 1086.7 1131.96 1082.34C1115.66 1077.98 1108.82 1050.63 1116.7 1021.29Z" fill="black"/>
<path d="M1144.59 926.884C1133.61 919.102 1123.44 918.856 1106.57 921.255M1118.56 607.698L1131.56 591.694" stroke="black" stroke-width="11.3615" stroke-miterlimit="2.613" stroke-linecap="round" stroke-linejoin="round"/>
<path fill-rule="evenodd" clip-rule="evenodd" d="M1143.04 672.262C1157.82 653.352 1183.79 650.849 1191.39 651.277C1200.29 652.963 1198.59 663.105 1184.65 663.52L1176.62 669.577C1175.07 663.403 1170.51 660.822 1162.96 661.834L1143.04 672.262Z" fill="black"/>
<path d="M493.849 744.815L515.314 721.236M341.701 708.564L351.713 714.556M271.301 734.737L280.47 741.248M443.474 898.896L449.324 902.566M432.489 954.497L438.727 954.264" stroke="black" stroke-width="11.3615" stroke-miterlimit="2.613" stroke-linecap="round" stroke-linejoin="round"/>
</svg>
